# xmcd CD Database Entry
#
# Track frame offsets:
# 150
# 25869
# 47729
# 64931
# 85386
# 105992
# 117479
# 140947
# 157448
# 182208
# 200707
#
# Disc length: 2921 seconds
#
# Revision: 2
# Processed by: cddbd v1.4PL0 Copyright (c) Steve Scherf et al.
# Submitted via: tcd 2.0b
#
DISCID=aa0b670b
DTITLE=The Band That Couldn't Plough Straight - Taxi
DYEAR=1900
DGENRE=
TTITLE0=The City is a Creepy Place at Night
TTITLE1=Taxi
TTITLE2=Lonely
TTITLE3=Palm Island Smile
TTITLE4=Don't Come to Sydney
TTITLE5=Fitzroy Street
TTITLE6=Roo Shooter
TTITLE7=Newtown
TTITLE8=6am at the Taxi Club
TTITLE9=Badman
TTITLE10=Frangipani
EXTD=Submitted by Will Kemp
EXTT0=
EXTT1=
EXTT2=
EXTT3=
EXTT4=
EXTT5=
EXTT6=
EXTT7=
EXTT8=
EXTT9=
EXTT10=
PLAYORDER=
